<?xml version="1.0" encoding="UTF-8"?>
<svg id="Layer_2" data-name="Layer 2" xmlns="http://www.w3.org/2000/svg" viewBox="0 0 968.49 179.79">
  <defs>
    <style>
      .cls-1 {
        fill: #f2f2f2;
      }
    </style>
  </defs>
  <g id="Layer_1-2" data-name="Layer 1">
    <g>
      <ellipse class="cls-1" cx="99.19" cy="142.6" rx="17.99" ry="13.36"/>
      <path class="cls-1" d="M114.66,41.79c47.44-1.57,83.73-10.27,83.73-20.77,0-11.61-44.41-21.02-99.19-21.02S0,9.41,0,21.02c0,10.5,36.29,19.19,83.73,20.77,2.82.09,5.03,1.7,5.03,3.63s-2.11,3.46-4.85,3.62c-30.85,1.79-53.9,8.9-53.9,17.39,0,9.1,26.44,16.6,60.6,17.69,3.03.1,5.45,2.54,5.45,5.57v.2c0,2.88-2.21,5.26-5.08,5.54-14.75,1.41-25.68,6.55-25.68,12.68,0,7.22,15.17,13.07,33.89,13.07s33.88-5.85,33.88-13.07c0-6.13-10.93-11.27-25.68-12.68-2.87-.28-5.08-2.66-5.08-5.54v-.2c0-3.03,2.42-5.48,5.45-5.57,34.16-1.09,60.6-8.59,60.6-17.69,0-8.49-23.04-15.59-53.9-17.39-2.74-.16-4.85-1.73-4.85-3.62s2.21-3.54,5.03-3.63Z"/>
      <g>
        <path class="cls-1" d="M267.77,147.5l-44.69-118.94h15.8l36.7,101.1,36.87-101.1h15.8l-44.69,118.94h-15.8Z"/>
        <path class="cls-1" d="M359.52,60.51c10.54,0,19.03,2.89,25.49,8.67,6.46,5.77,9.69,13.59,9.69,23.45v54.88h-14.27v-14.61c-2.49,4.87-6.32,8.75-11.47,11.64-5.16,2.89-10.85,4.33-17.08,4.33-8.5,0-15.44-2.35-20.81-7.05-5.38-4.7-8.07-10.79-8.07-18.27,0-16.08,13.59-25.49,40.78-28.2l16.65-1.87v-1.7c0-5.89-1.9-10.56-5.69-14.02-3.8-3.46-8.87-5.18-15.21-5.18-5.89,0-10.76,1.64-14.61,4.93-3.85,3.29-6.06,7.82-6.63,13.59l-13.42-2.55c1.24-8.5,5.07-15.29,11.47-20.39,6.4-5.1,14.13-7.65,23.19-7.65ZM354.09,136.97c8.27,0,14.73-2.55,19.37-7.65,4.64-5.1,6.97-11.95,6.97-20.56v-4.08l-16.65,1.87c-17.56,1.93-26.34,7.54-26.34,16.82,0,3.97,1.56,7.22,4.67,9.77,3.12,2.55,7.11,3.82,11.98,3.82Z"/>
        <path class="cls-1" d="M485.26,61.86v85.64h-14.44v-16.14c-3.06,5.33-7.14,9.57-12.23,12.74-5.1,3.17-10.82,4.76-17.16,4.76-8.95,0-16.28-2.78-22-8.33-5.72-5.55-8.58-12.86-8.58-21.92v-56.75h14.44v54.03c0,5.89,1.75,10.68,5.27,14.36,3.51,3.68,8.21,5.52,14.1,5.52,8.04,0,14.41-3.25,19.11-9.77,4.7-6.51,7.05-15.38,7.05-26.59v-37.55h14.44Z"/>
        <path class="cls-1" d="M505.31,147.5V27.2h14.44v120.3h-14.44Z"/>
        <path class="cls-1" d="M585.33,146.82c-3.74,1.36-8.21,2.04-13.42,2.04-7.7,0-13.85-2.24-18.44-6.71-4.59-4.47-6.88-11.24-6.88-20.3v-47.24h-15.97v-12.74h15.97v-26h14.44v26h22.94v12.74h-22.94v47.75c0,4.42,1.13,7.76,3.4,10.02,2.27,2.27,5.32,3.4,9.18,3.4,4.19,0,7.76-.74,10.7-2.21l1.02,13.25Z"/>
        <path class="cls-1" d="M640.56,148.86c-11.44,0-21.35-3.37-29.74-10.11-8.38-6.74-13.54-15.55-15.46-26.42l14.61-4.76c1.13,8.27,4.59,14.93,10.36,19.97,5.78,5.04,12.63,7.56,20.56,7.56s14.67-1.79,19.54-5.35,7.31-8.3,7.31-14.19c0-4.87-1.67-8.98-5.01-12.32-3.34-3.34-7.51-5.78-12.49-7.31-4.99-1.53-10.42-3.25-16.31-5.18-5.89-1.92-11.33-3.91-16.31-5.95-4.99-2.04-9.15-5.32-12.49-9.86-3.34-4.53-5.01-10.08-5.01-16.65,0-9.18,3.74-16.65,11.21-22.43,7.48-5.78,17.1-8.67,28.89-8.67,10.87,0,20.16,2.69,27.86,8.07,7.7,5.38,12.29,12.49,13.76,21.33l-14.1,5.43c-1.25-6.46-4.28-11.58-9.09-15.38-4.82-3.8-10.96-5.69-18.44-5.69s-13.57,1.56-17.93,4.67c-4.36,3.12-6.54,7.34-6.54,12.66,0,3.63,1.24,6.69,3.74,9.18,2.49,2.49,5.75,4.42,9.77,5.78,4.02,1.36,8.44,2.66,13.25,3.91,4.82,1.25,9.63,2.72,14.44,4.42,4.81,1.7,9.23,3.82,13.25,6.37,4.02,2.55,7.28,6.15,9.77,10.79,2.49,4.65,3.74,10.2,3.74,16.65,0,10.08-3.94,18.18-11.81,24.3-7.88,6.12-18.32,9.18-31.35,9.18Z"/>
        <path class="cls-1" d="M697.31,27.2h16.65v18.35h-16.65v-18.35ZM698.33,147.5V61.86h14.44v85.64h-14.44Z"/>
        <path class="cls-1" d="M796.03,61.86h14.27v81.56c0,10.76-3.71,19.51-11.13,26.25-7.42,6.74-17.02,10.11-28.8,10.11-9.97,0-18.47-2.41-25.49-7.22-7.03-4.82-11.16-11.07-12.41-18.77l13.93-2.38c.45,4.76,2.91,8.64,7.39,11.64,4.47,3,10,4.5,16.57,4.5,7.59,0,13.76-2.1,18.52-6.29,4.76-4.19,7.14-9.63,7.14-16.31v-11.9c-1.93,3.63-5.44,6.57-10.54,8.84-5.09,2.27-10.7,3.4-16.82,3.4-12.8,0-22.8-3.93-29.99-11.81-7.2-7.87-10.79-18.04-10.79-30.5s3.57-22.8,10.71-30.67c7.14-7.87,17.05-11.81,29.73-11.81,5.66,0,11.05,1.22,16.14,3.65,5.1,2.44,8.94,5.52,11.55,9.26v-11.56ZM750.15,124.39c4.99,5.33,11.61,7.99,19.88,7.99s14.87-2.66,19.79-7.99c4.93-5.32,7.39-12.46,7.39-21.41s-2.47-16.11-7.39-21.49c-4.92-5.38-11.53-8.07-19.79-8.07s-15.04,2.69-19.97,8.07c-4.92,5.38-7.39,12.55-7.39,21.49s2.49,16.09,7.48,21.41Z"/>
        <path class="cls-1" d="M830.35,147.5V27.2h14.44v51.49c6.23-12.12,15.97-18.18,29.23-18.18,9.74,0,17.53,2.78,23.36,8.33,5.83,5.55,8.75,12.97,8.75,22.26v56.41h-14.44v-53.69c0-6.34-1.84-11.3-5.52-14.87-3.68-3.57-8.81-5.35-15.38-5.35-7.93,0-14.25,3.34-18.94,10.02-4.7,6.69-7.05,15.75-7.05,27.19v36.7h-14.44Z"/>
        <path class="cls-1" d="M968.49,146.82c-3.74,1.36-8.21,2.04-13.42,2.04-7.7,0-13.85-2.24-18.44-6.71-4.59-4.47-6.88-11.24-6.88-20.3v-47.24h-15.97v-12.74h15.97v-26h14.44v26h22.94v12.74h-22.94v47.75c0,4.42,1.13,7.76,3.4,10.02,2.27,2.27,5.32,3.4,9.18,3.4,4.19,0,7.76-.74,10.7-2.21l1.02,13.25Z"/>
      </g>
    </g>
  </g>
</svg>